<?xml version="1.0" standalone="no"?>
<!DOCTYPE svg PUBLIC "-//W3C//DTD SVG 20010904//EN"
 "http://www.w3.org/TR/2001/REC-SVG-20010904/DTD/svg10.dtd">
<svg version="1.0" xmlns="http://www.w3.org/2000/svg"
 width="444.000000pt" height="444.000000pt" viewBox="0 0 444.000000 444.000000"
 preserveAspectRatio="xMidYMid meet">
<metadata>
Created by potrace 1.14, written by Peter Selinger 2001-2017
</metadata>
<g transform="translate(0.000000,444.000000) scale(0.100000,-0.100000)"
fill="#000000" stroke="none">
<path d="M2209 2232 l-1224 -1223 55 -50 c719 -656 1826 -597 2467 131 349
396 496 929 402 1453 -57 314 -203 608 -427 857 l-50 55 -1223 -1223z m737
-93 c74 -13 186 -66 239 -113 l40 -35 -388 -388 -388 -388 -35 40 c-72 82
-124 226 -124 345 0 149 54 277 164 386 134 134 304 187 492 153z"/>
<path d="M1580 2854 l-385 -385 39 -35 c94 -82 251 -131 386 -121 142 11 266
72 365 179 144 156 183 364 105 571 -20 54 -102 177 -118 177 -4 0 -180 -174
-392 -386z"/>
</g>
</svg>
