<?xml version="1.0" standalone="no"?>
<!DOCTYPE svg PUBLIC "-//W3C//DTD SVG 20010904//EN"
 "http://www.w3.org/TR/2001/REC-SVG-20010904/DTD/svg10.dtd">
<svg version="1.0" xmlns="http://www.w3.org/2000/svg"
 width="512.000000pt" height="512.000000pt" viewBox="0 0 512.000000 512.000000"
 preserveAspectRatio="xMidYMid meet">
<metadata>
Created by potrace 1.14, written by Peter Selinger 2001-2017
</metadata>
<g transform="translate(0.000000,512.000000) scale(0.100000,-0.100000)"
fill="#000000" stroke="none">
<path d="M2560 2560 l-1625 -1620 82 -79 c304 -292 759 -508 1220 -578 154
-23 491 -23 643 0 249 39 474 109 695 217 279 137 505 312 724 560 282 320
469 730 537 1180 25 158 25 482 0 640 -71 469 -286 924 -579 1225 l-72 75
-1625 -1620z m1024 -130 c94 -24 213 -85 281 -145 l50 -44 -518 -518 -518
-518 -37 41 c-104 116 -162 269 -169 444 -6 147 11 232 73 359 40 81 60 109
138 186 103 103 203 162 328 195 102 26 269 27 372 0z"/>
<path d="M1720 3394 l-515 -515 50 -45 c63 -56 208 -129 300 -149 90 -21 254
-21 336 0 35 9 107 37 159 62 80 39 108 59 186 137 76 76 98 106 138 186 55
112 76 201 76 327 0 150 -36 276 -112 395 -39 61 -86 118 -97 118 -4 0 -238
-232 -521 -516z"/>
</g>
</svg>
